<?xml version="1.0" standalone="no"?>
<!DOCTYPE svg PUBLIC "-//W3C//DTD SVG 20010904//EN"
 "http://www.w3.org/TR/2001/REC-SVG-20010904/DTD/svg10.dtd">
<svg version="1.0" xmlns="http://www.w3.org/2000/svg"
 width="150.000000pt" height="150.000000pt" viewBox="0 0 150.000000 150.000000"
 preserveAspectRatio="xMidYMid meet">
<metadata>
Created by potrace 1.16, written by Peter Selinger 2001-2019
</metadata>
<g transform="translate(0.000000,150.000000) scale(0.100000,-0.100000)"
fill="#000000" stroke="none">
<path d="M0 750 l0 -750 750 0 750 0 0 750 0 750 -750 0 -750 0 0 -750z m862
529 c91 -19 193 -74 262 -142 132 -131 189 -312 152 -486 -9 -41 -19 -78 -24
-83 -4 -4 -26 11 -49 35 -41 42 -41 42 -33 97 36 262 -185 498 -449 477 -36
-2 -86 -13 -111 -23 -30 -11 -79 -19 -145 -21 l-100 -3 40 35 c48 43 147 93
218 111 66 16 171 17 239 3z m91 -273 c72 -26 108 -77 109 -155 0 -57 -19 -99
-63 -136 l-32 -26 111 -112 c62 -62 112 -117 112 -122 -1 -6 -14 -26 -31 -45
l-29 -35 -153 153 -152 152 -113 0 -112 0 0 -100 0 -100 -55 0 -56 0 3 153 3
152 215 3 c205 2 216 3 233 23 22 28 22 54 -3 79 -19 19 -33 20 -360 20 -187
0 -340 3 -340 6 0 3 10 28 21 55 l21 49 317 0 c240 -1 325 -4 354 -14z m-629
-220 c-3 -8 -1 -48 5 -88 43 -282 334 -444 594 -331 l38 17 41 -41 41 -41 -50
-25 c-153 -78 -342 -76 -497 5 -82 43 -185 148 -225 229 -34 69 -61 178 -61
247 l0 42 60 0 c48 0 58 -3 54 -14z"/>
</g>
</svg>
